<?xml version="1.0" encoding="UTF-8"?>
<svg id="Layer_1" data-name="Layer 1" xmlns="http://www.w3.org/2000/svg" viewBox="0 0 192 19.01">
  <defs>
    <style>
      .cls-1 {
        fill: #231f20;
      }

      .cls-2 {
        fill: #1a5632;
      }
    </style>
  </defs>
  <g>
    <path class="cls-1" d="M76.69.46h3.42l5.48,14.78L91.16.46h3.32v18.1h-2.61V4.89l-5.25,13.66h-2.21l-5.17-13.64v13.64h-2.56V.46Z"/>
    <path class="cls-1" d="M97.4.46h11.97v2.38h-9.15v5.22h8.64v2.38h-8.64v5.73h9.63l-.38,2.38h-12.07V.46Z"/>
    <path class="cls-1" d="M112.3.46h6.49c2.7,0,4.81.74,6.31,2.22s2.26,3.71,2.26,6.7-.8,5.31-2.41,6.86c-1.61,1.55-3.82,2.32-6.64,2.32h-6.01V.46ZM124.45,9.43c0-2.1-.44-3.72-1.33-4.87-.89-1.15-2.32-1.72-4.3-1.72h-3.73v13.31h3.32c2.09,0,3.62-.59,4.59-1.77.96-1.18,1.44-2.83,1.44-4.94Z"/>
    <path class="cls-1" d="M129.77.46h2.81v18.1h-2.81V.46Z"/>
    <path class="cls-1" d="M134.89,9.56c0-2.04.35-3.78,1.06-5.2s1.68-2.5,2.92-3.24c1.23-.74,2.64-1.12,4.23-1.12,1.5,0,2.74.25,3.71.75.97.5,1.74,1.2,2.31,2.09.57.9.97,1.95,1.2,3.17l-2.76.43c-.29-1.25-.76-2.23-1.41-2.94-.65-.71-1.68-1.06-3.08-1.06-1.12,0-2.07.29-2.85.87-.79.58-1.38,1.4-1.79,2.46-.41,1.06-.61,2.3-.61,3.74,0,2.15.46,3.86,1.38,5.15.92,1.28,2.23,1.93,3.92,1.93,1.03,0,1.86-.17,2.48-.52.62-.35,1.1-.83,1.43-1.44.33-.62.55-1.33.67-2.14h2.86c-.12,1.27-.47,2.39-1.06,3.37-.59.98-1.42,1.75-2.48,2.32-1.06.57-2.38.85-3.95.85-1.69,0-3.15-.37-4.37-1.12-1.23-.74-2.17-1.82-2.83-3.23-.66-1.41-.99-3.11-.99-5.11Z"/>
    <path class="cls-1" d="M153.24.46h2.81v18.1h-2.81V.46Z"/>
    <path class="cls-1" d="M159.02.46h2.69l8.72,13.64V.46h2.69v18.1h-2.59l-8.82-13.61v13.61h-2.69V.46Z"/>
    <path class="cls-1" d="M176.06.46h11.97v2.38h-9.15v5.22h8.64v2.38h-8.64v5.73h9.63l-.38,2.38h-12.07V.46Z"/>
  </g>
  <g>
    <path class="cls-2" d="M18.69,18.62c2.13,0,4.15-2.05,4.15-4.13,0-.63,0-14.03,0-14.03h-6.33v11.27c0,.45-.5,1.37-1.37,1.37h-7.45c-.87,0-1.37-.91-1.37-1.37V.46H0s0,13.58,0,14.03C0,16.57,2.02,18.62,4.15,18.62h14.53Z"/>
    <path class="cls-2" d="M38.81.46h-7.27l-9.99,18.16h7.41l1.38-2.83h9.67l1.38,2.83h7.41L38.81.46ZM32.77,10.79l2.4-4.94,2.4,4.94h-4.8Z"/>
    <path class="cls-2" d="M49.18.48h16.31c3.71,0,5.36,1.63,5.36,4.52,0,1.6-.79,3-2.16,3.53v.05c2.34.61,3.1,2.79,3.1,4.14,0,3.56-1.78,5.89-7.09,5.89h-15.52V.48ZM56.19,7.24h5.41c1.45,0,1.78-.48,1.78-1.19,0-.66-.33-1.14-1.78-1.14h-5.41v2.34ZM56.19,14.2h6.12c1.42,0,1.85-.61,1.85-1.42s-.43-1.42-1.85-1.42h-6.12v2.85Z"/>
  </g>
  <path class="cls-1" d="M190.87,16.3c.62,0,1.13.51,1.13,1.13s-.51,1.13-1.13,1.13-1.13-.51-1.13-1.13.51-1.13,1.13-1.13ZM190.87,18.39c.53,0,.96-.43.96-.96s-.43-.96-.96-.96-.96.43-.96.96.43.96.96.96ZM190.63,18.07h-.16v-1.3h.5c.29,0,.41.13.41.36s-.15.34-.33.37l.39.57h-.18l-.39-.57h-.23v.57ZM190.63,17.36h.21c.18,0,.37,0,.37-.22,0-.17-.15-.22-.29-.22h-.29v.44Z"/>
</svg>